<?xml version="1.0" standalone="no"?>
<!DOCTYPE svg PUBLIC "-//W3C//DTD SVG 20010904//EN"
 "http://www.w3.org/TR/2001/REC-SVG-20010904/DTD/svg10.dtd">
<svg version="1.0" xmlns="http://www.w3.org/2000/svg"
 width="260.000000pt" height="260.000000pt" viewBox="0 0 260.000000 260.000000"
 preserveAspectRatio="xMidYMid meet">
<metadata>
Created by potrace 1.11, written by Peter Selinger 2001-2013
</metadata>
<g transform="translate(0.000000,260.000000) scale(0.100000,-0.100000)"
fill="#000000" stroke="none">
<path d="M1118 2569 c-19 -39 -35 -98 -32 -116 1 -7 2 -26 3 -42 1 -35 45 -91
72 -91 23 0 48 37 54 81 6 47 -19 128 -53 168 l-28 34 -16 -34z"/>
<path d="M1423 2572 c-34 -41 -63 -124 -57 -166 5 -46 31 -86 54 -86 21 0 69
53 72 78 5 63 5 81 -4 117 -5 22 -17 50 -26 62 l-17 22 -22 -27z"/>
<path d="M778 2493 c-5 -101 14 -178 54 -210 26 -22 64 -25 78 -8 39 47 -6
173 -79 222 -44 30 -51 29 -53 -4z"/>
<path d="M1738 2480 c-75 -65 -106 -166 -65 -207 44 -44 137 66 137 162 0 46
-9 85 -20 85 -4 0 -27 -18 -52 -40z"/>
<path d="M497 2338 c-6 -18 16 -107 36 -145 34 -64 114 -95 137 -53 26 48 -22
136 -101 186 -43 27 -65 30 -72 12z"/>
<path d="M2025 2329 c-52 -26 -111 -91 -118 -129 -10 -46 7 -80 39 -80 62 0
131 92 139 185 5 52 -1 55 -60 24z"/>
<path d="M1159 2278 c-2 -31 -45 -233 -50 -233 -3 0 -39 38 -79 85 -78 91 -89
102 -102 94 -18 -11 -4 -36 77 -138 46 -58 120 -169 163 -246 l79 -140 -3 -72
c-2 -40 -3 -97 -4 -125 0 -44 -3 -53 -18 -53 -10 0 -22 4 -28 9 -5 5 -45 27
-89 50 -44 23 -90 53 -101 66 -43 47 -164 273 -209 390 -50 131 -56 141 -79
132 -13 -5 -14 -11 -5 -34 6 -15 12 -35 15 -43 2 -8 15 -48 30 -88 15 -40 25
-75 22 -77 -2 -3 -57 13 -122 35 -99 33 -118 37 -123 24 -9 -23 2 -29 127 -75
63 -23 121 -46 127 -51 15 -12 137 -238 132 -243 -2 -2 -64 -5 -136 -7 l-133
-5 -106 89 c-58 48 -112 88 -120 88 -26 0 -14 -36 24 -67 87 -73 146 -132 132
-133 -8 -1 -22 -3 -30 -5 -27 -6 -64 -13 -105 -20 -67 -11 -105 -26 -105 -40
0 -21 25 -21 157 1 92 15 167 20 287 19 l163 -1 86 -54 c104 -65 135 -90 122
-96 -5 -2 -54 -33 -107 -67 l-98 -63 -151 -3 c-114 -2 -186 3 -296 20 -99 15
-148 18 -155 11 -20 -20 2 -29 119 -52 65 -13 120 -24 121 -26 2 -1 -16 -20
-40 -41 -124 -110 -150 -139 -136 -151 14 -12 70 27 188 131 37 32 57 42 81
39 4 -1 57 -2 118 -3 61 -1 113 -5 116 -9 3 -5 -23 -61 -58 -125 l-62 -117
-65 -24 c-178 -67 -200 -76 -200 -90 0 -27 26 -24 138 16 61 22 112 35 112 30
0 -6 -16 -57 -36 -115 -35 -101 -39 -140 -12 -130 7 3 35 63 62 133 53 137
195 395 230 416 73 45 200 106 207 99 5 -5 9 -64 11 -133 l2 -125 -80 -137
c-68 -117 -145 -227 -224 -318 -22 -26 -26 -45 -9 -56 12 -7 32 12 122 119 33
39 59 62 62 55 2 -7 13 -62 25 -123 21 -114 32 -137 52 -117 8 8 7 38 -7 124
-10 62 -21 124 -25 138 -7 25 -2 34 117 224 l25 38 32 -48 c18 -27 51 -81 74
-119 l42 -71 -24 -134 c-17 -96 -21 -139 -14 -148 21 -24 35 8 58 129 19 98
25 118 36 107 7 -7 40 -47 74 -88 66 -79 84 -95 100 -85 18 11 11 22 -75 131
-70 87 -185 261 -185 279 0 2 -14 27 -31 56 -30 52 -30 52 -26 176 2 68 7 126
10 129 3 3 54 -21 114 -52 l110 -58 78 -135 c43 -73 101 -191 127 -260 52
-133 72 -166 87 -143 5 8 -7 60 -30 130 -21 64 -37 117 -35 119 1 2 54 -15
116 -37 96 -35 115 -39 127 -27 20 20 8 27 -128 76 -64 24 -120 46 -126 49
-16 11 -134 240 -126 245 5 3 52 5 106 6 53 1 105 4 115 6 31 6 89 -31 176
-110 6 -6 30 -25 52 -43 36 -27 43 -30 54 -17 13 15 6 23 -139 152 l-44 40
113 19 c119 20 154 34 133 55 -9 9 -30 9 -92 0 -44 -7 -90 -15 -103 -18 -13
-3 -109 -7 -214 -8 l-190 -3 -107 69 c-59 38 -107 71 -107 73 0 1 48 34 106
71 l107 68 166 0 c91 0 198 -5 236 -11 184 -29 205 -30 205 -8 0 17 -3 18
-140 46 -58 12 -106 23 -107 24 -2 2 25 27 59 57 118 102 131 116 124 127 -4
7 -13 12 -20 12 -11 0 -112 -81 -195 -157 -23 -21 -31 -21 -160 -16 -75 3
-137 6 -139 8 -3 3 115 226 126 237 5 5 62 29 127 54 133 50 150 60 135 79 -9
11 -35 5 -127 -26 -64 -21 -118 -37 -120 -35 -2 2 15 54 37 116 39 110 41 141
8 127 -7 -2 -33 -58 -57 -123 -47 -126 -189 -389 -224 -414 -11 -8 -65 -39
-119 -68 -93 -50 -98 -51 -99 -30 0 13 -3 72 -5 131 l-5 108 42 77 c71 130
136 230 197 305 86 106 99 127 81 138 -15 9 -20 5 -124 -115 l-59 -68 -8 28
c-8 29 -13 57 -24 117 -14 80 -25 108 -42 105 -23 -4 -23 -11 4 -153 3 -16 7
-39 8 -50 2 -11 6 -35 10 -53 7 -29 0 -45 -65 -149 l-72 -116 -19 24 c-47 59
-128 201 -128 223 0 14 4 47 10 73 12 60 18 95 26 156 6 43 5 47 -15 47 -11 0
-21 -6 -22 -12z"/>
<path d="M254 2095 c-12 -31 55 -129 106 -155 110 -56 162 20 71 103 -53 48
-166 81 -177 52z"/>
<path d="M2213 2082 c-81 -33 -134 -110 -102 -148 21 -25 89 -13 136 25 41 33
83 96 83 125 0 22 -61 21 -117 -2z"/>
<path d="M128 1843 c-25 -4 -27 -7 -17 -26 19 -37 82 -98 118 -113 71 -30 139
-8 127 40 -17 67 -128 116 -228 99z"/>
<path d="M2375 1839 c-99 -22 -152 -80 -118 -129 35 -50 165 -3 221 80 12 18
19 37 15 41 -12 11 -84 16 -118 8z"/>
<path d="M52 1484 c-53 -23 -53 -23 -33 -43 60 -60 182 -83 234 -45 15 10 27
26 27 35 0 18 -46 68 -64 70 -67 9 -116 4 -164 -17z"/>
<path d="M2383 1496 c-17 -8 -39 -26 -49 -40 -16 -25 -16 -28 1 -46 22 -24 71
-39 113 -34 40 5 115 40 137 64 16 18 15 20 -24 39 -54 28 -136 35 -178 17z"/>
<path d="M117 1215 c-46 -16 -107 -56 -107 -71 0 -33 148 -63 200 -41 37 16
70 48 70 69 0 43 -92 67 -163 43z"/>
<path d="M2363 1214 c-40 -20 -48 -40 -28 -71 31 -46 128 -62 205 -34 61 23
60 45 -6 82 -64 37 -128 45 -171 23z"/>
<path d="M220 913 c-51 -25 -110 -88 -110 -117 0 -15 34 -21 95 -17 69 5 155
67 155 111 0 46 -70 58 -140 23z"/>
<path d="M2280 926 c-29 -10 -35 -16 -32 -36 7 -66 94 -115 189 -108 29 3 56
8 59 11 4 4 -3 21 -16 39 -52 76 -137 115 -200 94z"/>
<path d="M374 690 c-45 -20 -73 -49 -103 -105 -32 -61 -29 -68 28 -63 56 5
130 45 160 87 21 29 28 76 13 85 -23 14 -63 12 -98 -4z"/>
<path d="M2121 699 c-20 -8 -23 -14 -17 -42 9 -46 36 -78 87 -104 56 -29 139
-40 139 -19 0 49 -64 130 -125 157 -45 21 -51 21 -84 8z"/>
<path d="M576 459 c-15 -11 -36 -39 -47 -62 -23 -43 -41 -147 -27 -147 5 0 25
7 46 16 77 32 139 119 127 180 -5 31 -9 34 -39 34 -19 0 -45 -9 -60 -21z"/>
<path d="M1910 460 c-16 -29 -3 -82 30 -122 30 -36 124 -93 139 -84 14 9 5 79
-17 128 -36 82 -125 128 -152 78z"/>
<path d="M829 332 c-20 -18 -35 -45 -44 -79 -14 -54 -12 -130 3 -145 14 -14
109 78 123 120 38 110 -9 169 -82 104z"/>
<path d="M1662 331 c-21 -60 14 -144 81 -195 39 -30 52 -32 61 -10 21 54 -4
156 -49 201 -43 43 -79 44 -93 4z"/>
<path d="M1132 273 c-53 -21 -57 -183 -6 -257 11 -17 14 -15 42 23 78 107 53
270 -36 234z"/>
<path d="M1384 255 c-37 -56 -18 -151 44 -230 l21 -26 22 42 c49 96 17 239
-53 239 -10 0 -25 -11 -34 -25z"/>
</g>
</svg>
